<?xml version="1.0" standalone="no"?>
<!DOCTYPE svg PUBLIC "-//W3C//DTD SVG 20010904//EN"
 "http://www.w3.org/TR/2001/REC-SVG-20010904/DTD/svg10.dtd">
<svg version="1.0" xmlns="http://www.w3.org/2000/svg"
 width="1132.000000pt" height="1132.000000pt" viewBox="0 0 1132.000000 1132.000000"
 preserveAspectRatio="xMidYMid meet">
<metadata>
Created by potrace 1.14, written by Peter Selinger 2001-2017
</metadata>
<g transform="translate(0.000000,1132.000000) scale(0.100000,-0.100000)"
fill="#000000" stroke="none">
<path d="M4580 11312 c0 -2 44 -90 99 -195 98 -192 227 -444 466 -912 70 -137
171 -335 225 -440 54 -104 162 -316 240 -470 78 -154 184 -361 235 -460 51
-99 148 -288 215 -420 67 -132 169 -330 225 -440 164 -320 322 -629 480 -940
81 -159 180 -353 220 -430 40 -77 103 -200 140 -273 l67 -134 -55 -116 c-31
-65 -142 -292 -247 -507 -106 -214 -227 -462 -270 -550 -43 -88 -149 -304
-235 -480 -86 -176 -185 -378 -220 -450 -34 -71 -112 -230 -173 -352 l-110
-223 814 0 c548 0 830 4 866 11 80 16 206 81 271 139 75 68 122 137 200 301
36 74 129 265 207 424 78 160 184 376 235 480 51 105 161 330 245 500 200 408
214 438 238 520 32 107 40 170 40 290 1 204 -32 316 -168 580 -82 159 -145
282 -450 880 -67 132 -164 321 -215 420 -51 99 -154 302 -230 450 -76 149
-168 329 -205 400 -37 72 -147 288 -245 480 -98 193 -204 400 -235 460 -32 61
-124 241 -205 400 -308 604 -318 621 -449 750 -131 130 -242 199 -406 254 -47
16 -101 32 -120 35 -19 3 -46 8 -60 12 -25 6 -1430 12 -1430 6z"/>
<path d="M3470 8274 c-114 -19 -227 -80 -317 -170 -73 -73 -75 -76 -249 -431
-97 -197 -209 -425 -249 -508 -40 -82 -141 -289 -225 -460 -363 -739 -365
-743 -396 -880 -19 -85 -25 -260 -12 -351 19 -131 61 -245 160 -434 30 -58
122 -235 203 -395 81 -159 189 -371 240 -470 51 -99 193 -376 315 -615 386
-756 461 -901 545 -1065 45 -88 142 -277 215 -420 502 -984 535 -1048 591
-1130 155 -230 396 -387 676 -441 77 -15 172 -17 776 -18 614 -1 687 1 687 15
0 8 -4 19 -9 25 -4 5 -81 153 -171 329 -89 176 -204 401 -255 500 -90 175
-210 410 -458 895 -66 129 -163 321 -217 425 -54 105 -150 294 -215 420 -65
127 -164 320 -220 430 -216 421 -307 599 -440 860 -76 149 -177 347 -225 440
-48 94 -158 308 -244 476 l-156 307 66 133 c69 140 231 469 389 794 51 105
161 330 245 500 84 171 190 387 235 480 45 94 148 304 229 468 80 164 146 300
146 301 0 1 -357 2 -792 2 -592 0 -812 -3 -868 -12z"/>
</g>
</svg>
